# This file uses centimeters as units for non-parametric coordinates.

mtllib arb4.mtl
g default
v -0.447760 0.172296 -0.444219
v 0.453150 0.104350 -0.461602
v -0.411676 0.148596 0.419071
v 0.447535 0.401384 -0.395803
v -0.458056 0.351673 -0.371489
v -0.461038 0.343218 0.476458
v 0.411725 0.365277 0.364490
v 0.489027 0.128569 0.401031
v 0.419639 0.340565 0.371065
v -0.436058 0.320663 -0.343233
v -0.432645 0.314302 0.425075
v 0.354409 0.690125 0.231807
v -0.326044 0.689382 -0.186214
v -0.324632 0.718367 0.283253
v -0.236005 0.369873 0.502829
v 0.542093 0.369795 0.221008
v 0.601038 0.400019 -0.265167
v -0.228375 0.155725 -0.523079
v 0.643480 0.129139 0.246716
v 0.586970 0.098602 -0.308749
v -0.583879 0.180661 -0.264915
v -0.590022 0.164105 0.278347
v -0.188064 0.135486 0.461088
v -0.392736 -0.008777 0.364523
v 0.490800 -0.005093 -0.387606
v -0.417681 -0.003841 -0.364241
v -0.435446 0.274703 -0.420338
v 0.426495 0.255841 -0.428418
v -0.396959 0.241921 0.407835
v -0.594709 0.349554 0.307977
v -0.599398 0.332625 -0.214979
v -0.263460 0.356813 -0.483172
v 0.482791 0.548552 -0.403779
v -0.437798 0.530754 -0.383512
v -0.457512 0.539438 0.528115
v 0.419717 0.377586 -0.380271
v 0.316558 0.685773 -0.205605
v 0.517282 -0.001737 0.305002
v 0.432665 0.297964 0.318126
v 0.464742 0.490135 0.412347
v 0.227087 0.365767 0.453843
v 0.222152 0.405511 -0.414326
v 0.237786 0.121240 -0.484535
v 0.274178 0.124298 0.445489
v -0.566799 0.308498 0.279227
v 0.554813 0.347190 0.225762
v -0.562589 0.305803 -0.200898
v 0.518786 0.381989 -0.222528
v -0.224817 0.327469 0.456342
v -0.257213 0.335956 -0.458365
v -0.167587 0.725038 0.298370
v 0.454819 0.658288 0.173299
v 0.437269 0.669861 -0.165948
v -0.185447 0.701222 -0.220899
v -0.431786 0.655501 -0.120239
v -0.420468 0.663163 0.218513
v -0.560502 0.006993 0.244211
v -0.196391 0.007157 0.459101
v -0.234283 0.013763 -0.467065
v -0.556079 0.014860 -0.224178
v 0.625360 0.009204 -0.287326
v 0.642505 0.016126 0.192734
v 0.565797 0.306665 0.203174
v 0.544977 0.261247 -0.281177
v -0.568329 0.277239 -0.248528
v -0.218732 0.271812 -0.463428
v -0.181361 0.239171 0.462329
v -0.563322 0.251689 0.263337
v -0.631094 0.534490 0.357953
v -0.217192 0.538350 0.584653
v 0.581932 0.488123 0.237393
v -0.576398 0.520013 -0.215994
v 0.622494 0.540345 -0.266688
v -0.246784 0.541532 -0.516773
v 0.229851 0.338448 0.439299
v 0.215537 0.367440 -0.424536
v 0.226480 0.735034 0.291545
v 0.190552 0.727005 -0.247737
v 0.241517 -0.004915 -0.416872
v 0.277131 -0.007349 0.369399
v 0.267015 0.265205 0.417417
v 0.226545 0.262449 -0.458842
v 0.263086 0.545389 -0.477826
v 0.254413 0.518260 0.462965
vt 2.325085 -0.884842
vt 2.272904 -0.797832
vt 2.226229 -1.732907
vt 2.330008 -1.761935
vt 2.352231 -0.624824
vt 2.268271 -0.483969
vt 2.096475 -0.767896
vt 2.066230 -1.760328
vt 2.208385 -1.996876
vt 2.340610 -2.028370
vt 2.405009 -1.814456
vt 2.374083 -0.859119
vt 2.081194 -0.440343
vt 1.779218 -1.697968
vt 1.793590 -0.842315
vt 2.037899 -2.017402
vt 2.742850 -1.905752
vt 2.716403 -0.857265
vt 1.759427 -0.586447
vt 1.750410 -1.917754
vt 2.977910 -1.651023
vt 2.963913 -1.032190
vt 2.408880 -0.573207
vt 2.736025 -0.551243
vt 2.393435 -2.122237
vt 2.751890 -2.216604
vt 2.755714 -0.307802
vt 2.418270 -0.369184
vt -0.918000 0.530350
vt -0.981571 1.349286
vt -1.055602 1.308023
vt -1.138571 0.423210
vt -0.993674 1.614726
vt -1.071497 1.518017
vt -1.379907 1.387565
vt -1.435691 0.372841
vt -1.148448 0.154229
vt -0.926044 0.242184
vt -0.948530 1.602715
vt -0.940276 1.340602
vt -1.380948 1.669468
vt -1.599004 0.411977
vt -1.586359 1.288950
vt -1.425191 0.093609
vt -0.724114 1.370534
vt -0.720439 1.690139
vt -1.618991 1.494042
vt -1.625122 0.228785
vt -0.628715 0.449678
vt -0.885062 0.452457
vt -0.413257 1.253446
vt -0.355097 1.360329
vt -0.392115 0.633710
vt -0.882569 0.213810
vt -0.613723 0.199240
vt -0.764419 -0.290644
vt -1.383252 -0.311320
vt -1.501519 -0.486393
vt -0.643896 -0.483814
vt -1.637981 0.073452
vt -1.948833 -0.243648
vt -1.529135 -0.773283
vt -0.580534 -0.740657
vt -0.589494 -0.026467
vt -0.283472 -0.279662
vt -2.052117 -0.682665
vt -1.516666 -1.493165
vt -0.531506 -1.427532
vt -0.040031 -0.628606
vt -1.829817 -1.544193
vt -1.407537 -1.726866
vt -0.608473 -1.657720
vt -0.111179 -1.560037
vt -1.737348 -1.928423
vt -1.300655 -1.910295
vt -0.680918 -1.878235
vt -0.246448 -1.961394
vt -0.496886 -2.216604
vt 0.119714 -1.484079
vt 0.173177 -1.939469
vt 1.438434 -1.987847
vt 1.556074 -1.549139
vt 0.038001 -1.870690
vt -0.003894 -1.477263
vt 0.356368 -2.185283
vt 1.233342 -2.216604
vt 1.613859 -1.936230
vt 1.695075 -1.543744
vt 1.719942 -0.684108
vt 1.547167 -0.325425
vt 0.215860 -0.279855
vt 0.028021 -0.614887
vt 1.327381 -0.018950
vt 0.471727 -0.027030
vt -1.557403 1.710297
vt -1.276983 1.948943
vt -1.427241 2.026836
vt -1.608220 1.738671
vt -1.384664 2.837089
vt -1.361427 2.845773
vt -1.040025 2.077197
vt -0.988407 2.037011
vt -0.728390 2.268158
vt -0.754113 2.335401
vt -1.244048 1.721709
vt -1.198731 1.710297
vt -1.691815 2.972414
vt -1.999596 3.216604
vt -2.052117 3.165618
vt -1.785681 2.920546
vt -1.728563 2.540886
vt -1.643640 2.561324
vt -1.733128 1.715347
vt -1.759697 1.710298
vt 0.006743 0.581829
vt 0.198540 0.561719
vt 0.181436 1.375151
vt 0.064258 1.445448
vt -0.011792 0.208833
vt 0.210612 0.196450
vt 0.456501 0.541184
vt 0.393504 1.392768
vt 0.176155 1.771045
vt 0.092195 1.772163
vt 0.026156 1.456861
vt -0.062805 0.569744
vt -0.055266 0.158015
vt 0.487356 0.147757
vt 0.652840 1.403560
vt 0.686961 0.534368
vt 0.363232 1.793540
vt -0.311289 1.426397
vt -0.318335 0.494966
vt -0.324113 0.093609
vt 0.684999 1.738592
vt 1.218456 0.406779
vt 1.170897 1.225873
vt 0.981485 1.238118
vt 0.961047 0.393694
vt 1.332200 1.305259
vt 1.352256 0.474671
vt 1.005434 1.646613
vt 1.175920 1.619728
vt 0.720554 0.388300
vt 0.747054 1.253330
vt 0.968849 0.001208
vt 1.278300 0.104170
vt 1.308146 1.684919
vt 1.356123 0.127966
vt 0.717945 1.612014
vt 1.401268 0.142423
vt 1.402162 0.479720
vt 1.629358 0.045572
vt 1.680737 0.429801
vt 1.717437 1.291329
vt 1.409663 1.325697
vt 1.360970 1.736788
vt 1.719425 1.730346
vn -0.404199 0.913997 -0.035100
vn -0.404199 0.913997 -0.035100
vn -0.404199 0.913997 -0.035100
vn -0.404199 0.913997 -0.035100
vn -0.108799 0.835896 0.537997
vn -0.108799 0.835896 0.537997
vn -0.108799 0.835896 0.537997
vn -0.108799 0.835896 0.537997
vn -0.440410 0.850619 0.287206
vn -0.440410 0.850619 0.287206
vn -0.440410 0.850619 0.287206
vn -0.440410 0.850619 0.287206
vn -0.599807 0.798710 -0.047901
vn -0.599807 0.798710 -0.047901
vn -0.599807 0.798710 -0.047901
vn -0.599807 0.798710 -0.047901
vn 0.694940 0.715342 0.073104
vn 0.694940 0.715342 0.073104
vn 0.694940 0.715342 0.073104
vn 0.694940 0.715342 0.073104
vn -0.047599 0.998485 -0.027600
vn -0.047599 0.998485 -0.027600
vn -0.047599 0.998485 -0.027600
vn -0.047599 0.998485 -0.027600
vn -0.065401 0.996508 -0.051900
vn -0.065401 0.996508 -0.051900
vn -0.065401 0.996508 -0.051900
vn -0.065401 0.996508 -0.051900
vn -0.999674 0.025499 0.001400
vn -0.999674 0.025499 0.001400
vn -0.999674 0.025499 0.001400
vn -0.999674 0.025499 0.001400
vn -0.491898 0.791096 -0.363598
vn -0.491898 0.791096 -0.363598
vn -0.491898 0.791096 -0.363598
vn -0.491898 0.791096 -0.363598
vn 0.011100 -0.999938 0.000200
vn 0.011100 -0.999938 0.000200
vn 0.011100 -0.999938 0.000200
vn 0.011100 -0.999938 0.000200
vn -0.284402 0.847907 -0.447403
vn -0.284402 0.847907 -0.447403
vn -0.284402 0.847907 -0.447403
vn -0.284402 0.847907 -0.447403
vn 0.254390 0.838267 -0.482281
vn 0.254390 0.838267 -0.482281
vn 0.254390 0.838267 -0.482281
vn 0.254390 0.838267 -0.482281
vn 0.335417 0.863643 -0.376319
vn 0.335417 0.863643 -0.376319
vn 0.335417 0.863643 -0.376319
vn 0.335417 0.863643 -0.376319
vn -0.020600 0.838506 -0.544504
vn -0.020600 0.838506 -0.544504
vn -0.020600 0.838506 -0.544504
vn -0.020600 0.838506 -0.544504
vn 0.123000 -0.992398 0.004100
vn 0.123000 -0.992398 0.004100
vn 0.123000 -0.992398 0.004100
vn 0.123000 -0.992398 0.004100
vn -0.538386 0.732980 -0.415789
vn -0.538386 0.732980 -0.415789
vn -0.538386 0.732980 -0.415789
vn -0.538386 0.732980 -0.415789
vn 0.034898 0.236289 -0.971056
vn 0.034898 0.236289 -0.971056
vn 0.034898 0.236289 -0.971056
vn 0.034898 0.236289 -0.971056
vn -0.648714 -0.367508 0.666414
vn -0.648714 -0.367508 0.666414
vn -0.648714 -0.367508 0.666414
vn -0.648714 -0.367508 0.666414
vn 0.064099 0.108898 0.991984
vn 0.064099 0.108898 0.991984
vn 0.064099 0.108898 0.991984
vn 0.064099 0.108898 0.991984
vn 0.649896 -0.399598 0.646496
vn 0.649896 -0.399598 0.646496
vn 0.649896 -0.399598 0.646496
vn 0.649896 -0.399598 0.646496
vn 0.965337 0.253610 -0.061702
vn 0.965337 0.253610 -0.061702
vn 0.965337 0.253610 -0.061702
vn 0.965337 0.253610 -0.061702
vn -0.338286 0.482780 -0.807766
vn -0.338286 0.482780 -0.807766
vn -0.338286 0.482780 -0.807766
vn -0.338286 0.482780 -0.807766
vn 0.940528 0.326510 -0.093803
vn 0.940528 0.326510 -0.093803
vn 0.940528 0.326510 -0.093803
vn 0.940528 0.326510 -0.093803
vn 0.070901 -0.062601 0.995517
vn 0.070901 -0.062601 0.995517
vn 0.070901 -0.062601 0.995517
vn 0.070901 -0.062601 0.995517
vn 0.427011 -0.352709 0.832621
vn 0.427011 -0.352709 0.832621
vn 0.427011 -0.352709 0.832621
vn 0.427011 -0.352709 0.832621
vn -0.191993 -0.162394 0.967867
vn -0.191993 -0.162394 0.967867
vn -0.191993 -0.162394 0.967867
vn -0.191993 -0.162394 0.967867
vn 0.099304 -0.288110 0.952434
vn 0.099304 -0.288110 0.952434
vn 0.099304 -0.288110 0.952434
vn 0.099304 -0.288110 0.952434
vn 0.164608 -0.290714 0.942544
vn 0.164608 -0.290714 0.942544
vn 0.164608 -0.290714 0.942544
vn 0.164608 -0.290714 0.942544
vn -0.769400 0.228500 -0.596500
vn -0.769400 0.228500 -0.596500
vn -0.769400 0.228500 -0.596500
vn -0.769400 0.228500 -0.596500
vn -0.235211 0.367617 -0.899741
vn -0.235211 0.367617 -0.899741
vn -0.235211 0.367617 -0.899741
vn -0.235211 0.367617 -0.899741
vn -0.378096 -0.388096 -0.840491
vn -0.378096 -0.388096 -0.840491
vn -0.378096 -0.388096 -0.840491
vn -0.378096 -0.388096 -0.840491
vn -0.728493 -0.334397 -0.597894
vn -0.728493 -0.334397 -0.597894
vn -0.728493 -0.334397 -0.597894
vn -0.728493 -0.334397 -0.597894
vn 0.136307 0.212311 -0.967649
vn 0.136307 0.212311 -0.967649
vn 0.136307 0.212311 -0.967649
vn 0.136307 0.212311 -0.967649
vn 0.734959 0.280084 -0.617566
vn 0.734959 0.280084 -0.617566
vn 0.734959 0.280084 -0.617566
vn 0.734959 0.280084 -0.617566
vn 0.685075 -0.085197 -0.723473
vn 0.685075 -0.085197 -0.723473
vn 0.685075 -0.085197 -0.723473
vn 0.685075 -0.085197 -0.723473
vn 0.078199 -0.503596 -0.860393
vn 0.078199 -0.503596 -0.860393
vn 0.078199 -0.503596 -0.860393
vn 0.078199 -0.503596 -0.860393
vn 0.978185 0.193097 -0.076599
vn 0.978185 0.193097 -0.076599
vn 0.978185 0.193097 -0.076599
vn 0.978185 0.193097 -0.076599
vn -0.974673 0.223494 0.007900
vn -0.974673 0.223494 0.007900
vn -0.974673 0.223494 0.007900
vn -0.974673 0.223494 0.007900
vn -0.984463 -0.174993 -0.014499
vn -0.984463 -0.174993 -0.014499
vn -0.984463 -0.174993 -0.014499
vn -0.984463 -0.174993 -0.014499
vn 0.969087 -0.234097 0.077899
vn 0.969087 -0.234097 0.077899
vn 0.969087 -0.234097 0.077899
vn 0.969087 -0.234097 0.077899
vn -0.211593 0.072497 0.974665
vn -0.211593 0.072497 0.974665
vn -0.211593 0.072497 0.974665
vn -0.211593 0.072497 0.974665
vn -0.606602 0.248401 0.755203
vn -0.606602 0.248401 0.755203
vn -0.606602 0.248401 0.755203
vn -0.606602 0.248401 0.755203
vn -0.591287 -0.301993 0.747783
vn -0.591287 -0.301993 0.747783
vn -0.591287 -0.301993 0.747783
vn -0.591287 -0.301993 0.747783
vn -0.302114 -0.195809 0.932945
vn -0.302114 -0.195809 0.932945
vn -0.302114 -0.195809 0.932945
vn -0.302114 -0.195809 0.932945
vn 0.144894 -0.164593 -0.975661
vn 0.144894 -0.164593 -0.975661
vn 0.144894 -0.164593 -0.975661
vn 0.144894 -0.164593 -0.975661
vn 0.194595 -0.285293 -0.938478
vn 0.194595 -0.285293 -0.938478
vn 0.194595 -0.285293 -0.938478
vn 0.194595 -0.285293 -0.938478
vn 0.663369 -0.154993 -0.732065
vn 0.663369 -0.154993 -0.732065
vn 0.663369 -0.154993 -0.732065
vn 0.663369 -0.154993 -0.732065
vn 0.249285 -0.945744 -0.208388
vn 0.249285 -0.945744 -0.208388
vn 0.249285 -0.945744 -0.208388
vn 0.249285 -0.945744 -0.208388
vn -0.424613 -0.774724 -0.468515
vn -0.424613 -0.774724 -0.468515
vn -0.424613 -0.774724 -0.468515
vn -0.424613 -0.774724 -0.468515
vn -0.758075 0.066398 -0.648779
vn -0.758075 0.066398 -0.648779
vn -0.758075 0.066398 -0.648779
vn -0.758075 0.066398 -0.648779
vn -0.533932 -0.051603 -0.843951
vn -0.533932 -0.051603 -0.843951
vn -0.533932 -0.051603 -0.843951
vn -0.533932 -0.051603 -0.843951
vn -0.308404 -0.757111 -0.575908
vn -0.308404 -0.757111 -0.575908
vn -0.308404 -0.757111 -0.575908
vn -0.308404 -0.757111 -0.575908
vn -0.998550 -0.029999 -0.044698
vn -0.998550 -0.029999 -0.044698
vn -0.998550 -0.029999 -0.044698
vn -0.998550 -0.029999 -0.044698
vn 0.478697 -0.876595 -0.049300
vn 0.478697 -0.876595 -0.049300
vn 0.478697 -0.876595 -0.049300
vn 0.478697 -0.876595 -0.049300
vn -0.112403 -0.993625 -0.008700
vn -0.112403 -0.993625 -0.008700
vn -0.112403 -0.993625 -0.008700
vn -0.112403 -0.993625 -0.008700
vn -0.722172 -0.691574 0.013899
vn -0.722172 -0.691574 0.013899
vn -0.722172 -0.691574 0.013899
vn -0.722172 -0.691574 0.013899
vn -0.003900 -0.808916 0.587912
vn -0.003900 -0.808916 0.587912
vn -0.003900 -0.808916 0.587912
vn -0.003900 -0.808916 0.587912
vn -0.147795 -0.331889 0.931669
vn -0.147795 -0.331889 0.931669
vn -0.147795 -0.331889 0.931669
vn -0.147795 -0.331889 0.931669
vn -0.720179 -0.236093 0.652381
vn -0.720179 -0.236093 0.652381
vn -0.720179 -0.236093 0.652381
vn -0.720179 -0.236093 0.652381
vn -0.452718 -0.804532 0.384415
vn -0.452718 -0.804532 0.384415
vn -0.452718 -0.804532 0.384415
vn -0.452718 -0.804532 0.384415
vn 0.118406 -0.303814 -0.945345
vn 0.118406 -0.303814 -0.945345
vn 0.118406 -0.303814 -0.945345
vn 0.118406 -0.303814 -0.945345
vn 0.059301 -0.650708 0.757009
vn 0.059301 -0.650708 0.757009
vn 0.059301 -0.650708 0.757009
vn 0.059301 -0.650708 0.757009
vn 0.654891 0.433694 0.618892
vn 0.654891 0.433694 0.618892
vn 0.654891 0.433694 0.618892
vn 0.654891 0.433694 0.618892
vn 0.717820 -0.420612 0.554815
vn 0.717820 -0.420612 0.554815
vn 0.717820 -0.420612 0.554815
vn 0.717820 -0.420612 0.554815
vn 0.303317 -0.275315 0.912250
vn 0.303317 -0.275315 0.912250
vn 0.303317 -0.275315 0.912250
vn 0.303317 -0.275315 0.912250
vn 0.387387 -0.061398 0.919870
vn 0.387387 -0.061398 0.919870
vn 0.387387 -0.061398 0.919870
vn 0.387387 -0.061398 0.919870
vn 0.060001 0.314608 -0.947324
vn 0.060001 0.314608 -0.947324
vn 0.060001 0.314608 -0.947324
vn 0.060001 0.314608 -0.947324
vn 0.123200 -0.239299 -0.963098
vn 0.123200 -0.239299 -0.963098
vn 0.123200 -0.239299 -0.963098
vn 0.123200 -0.239299 -0.963098
vn 0.061701 -0.418507 -0.906115
vn 0.061701 -0.418507 -0.906115
vn 0.061701 -0.418507 -0.906115
vn 0.061701 -0.418507 -0.906115
vn 0.167406 0.348513 -0.922233
vn 0.167406 0.348513 -0.922233
vn 0.167406 0.348513 -0.922233
vn 0.167406 0.348513 -0.922233
vn 0.595909 0.468107 0.652510
vn 0.595909 0.468107 0.652510
vn 0.595909 0.468107 0.652510
vn 0.595909 0.468107 0.652510
vn 0.295487 0.374784 0.878763
vn 0.295487 0.374784 0.878763
vn 0.295487 0.374784 0.878763
vn 0.295487 0.374784 0.878763
vn 0.209492 -0.519380 0.828467
vn 0.209492 -0.519380 0.828467
vn 0.209492 -0.519380 0.828467
vn 0.209492 -0.519380 0.828467
vn 0.660719 -0.338810 0.669819
vn 0.660719 -0.338810 0.669819
vn 0.660719 -0.338810 0.669819
vn 0.660719 -0.338810 0.669819
vn 0.318810 0.947131 -0.036101
vn 0.318810 0.947131 -0.036101
vn 0.318810 0.947131 -0.036101
vn 0.318810 0.947131 -0.036101
vn 0.758435 0.346316 -0.552125
vn 0.758435 0.346316 -0.552125
vn 0.758435 0.346316 -0.552125
vn 0.758435 0.346316 -0.552125
vn 0.586896 0.673495 0.449397
vn 0.586896 0.673495 0.449397
vn 0.586896 0.673495 0.449397
vn 0.586896 0.673495 0.449397
vn -0.000800 -0.999984 -0.005600
vn -0.000800 -0.999984 -0.005600
vn -0.000800 -0.999984 -0.005600
vn -0.000800 -0.999984 -0.005600
vn -0.000800 -0.999984 -0.005600
vn -0.000800 -0.999984 -0.005600
vn 0.210591 0.977557 -0.005900
vn 0.210591 0.977557 -0.005900
vn 0.210591 0.977557 -0.005900
vn 0.210591 0.977557 -0.005900
vn 0.357090 0.668982 0.651882
vn 0.357090 0.668982 0.651882
vn 0.357090 0.668982 0.651882
vn 0.357090 0.668982 0.651882
vn 0.106699 0.743391 0.660292
vn 0.106699 0.743391 0.660292
vn 0.106699 0.743391 0.660292
vn 0.106699 0.743391 0.660292
s off
g Bush:BushBerries_5:Mesh
usemtl Bush:lambert3SG
f 55/56/1 56/57/2 14/58/3 13/59/4
f 51/62/5 14/58/6 35/61/7 70/66/8
f 69/60/9 35/61/10 14/58/11 56/57/12
f 72/18/13 69/17/14 56/21/15 55/22/16
f 52/51/17 71/45/18 73/49/19 53/53/20
f 51/62/21 77/67/22 78/68/23 54/63/24
f 13/59/25 14/58/26 51/62/27 54/63/28
f 47/1/29 65/2/30 68/3/31 45/4/32
f 72/64/33 55/56/34 13/59/35 34/65/36
f 79/79/37 25/80/38 38/81/39 80/82/40
f 74/69/41 34/65/42 13/59/43 54/63/44
f 78/68/45 37/72/46 33/77/47 83/73/48
f 53/76/49 73/78/50 33/77/51 37/72/52
f 78/68/53 83/73/54 74/69/55 54/63/56
f 61/85/57 62/86/58 38/81/59 25/80/60
f 47/1/61 10/5/62 27/6/63 65/2/64
f 76/115/65 82/116/66 66/117/67 50/118/68
f 29/9/69 11/10/70 45/4/71 68/3/72
f 81/136/73 67/137/74 23/138/75 44/139/76
f 46/30/77 9/33/78 39/34/79 63/31/80
f 48/29/81 46/30/82 63/31/83 64/32/84
f 27/123/85 10/124/86 50/118/87 66/117/88
f 64/32/89 63/31/90 19/35/91 20/36/92
f 49/140/93 67/137/94 81/136/95 75/141/96
f 39/147/97 9/149/98 75/141/99 81/136/100
f 49/140/101 11/148/102 29/143/103 67/137/104
f 80/144/105 44/139/106 23/138/107 58/145/108
f 84/154/109 70/155/110 15/156/111 41/152/112
f 1/13/113 21/7/114 65/2/115 27/6/116
f 1/131/117 27/123/118 66/117/119 18/122/120
f 1/131/121 18/122/122 59/129/123 26/135/124
f 1/13/125 26/19/126 60/15/127 21/7/128
f 2/128/129 43/121/130 82/116/131 28/120/132
f 2/44/133 28/37/134 64/32/135 20/36/136
f 2/44/137 20/36/138 61/42/139 25/48/140
f 2/83/141 25/80/142 79/79/143 43/84/144
f 61/42/145 20/36/146 19/35/147 62/43/148
f 68/3/149 65/2/150 21/7/151 22/8/152
f 57/14/153 22/8/154 21/7/155 60/15/156
f 73/49/157 71/45/158 16/40/159 17/50/160
f 3/142/161 23/138/162 67/137/163 29/143/164
f 3/16/165 29/9/166 68/3/167 22/8/168
f 3/16/169 22/8/170 57/14/171 24/20/172
f 3/142/173 24/150/174 58/145/175 23/138/176
f 4/127/177 36/119/178 76/115/179 42/126/180
f 4/127/181 42/126/182 83/133/183 33/134/184
f 4/54/185 33/55/186 73/49/187 17/50/188
f 4/95/189 17/96/190 48/97/191 36/98/192
f 5/101/193 10/102/194 47/103/195 31/104/196
f 5/23/197 31/12/198 72/18/199 34/24/200
f 5/23/201 34/24/202 74/27/203 32/28/204
f 5/101/205 32/105/206 50/106/207 10/102/208
f 69/17/209 72/18/210 31/12/211 30/11/212
f 17/96/213 16/99/214 46/100/215 48/97/216
f 57/93/217 60/94/218 26/91/219 24/90/220
f 30/11/221 31/12/222 47/1/223 45/4/224
f 6/107/225 11/110/226 49/111/227 15/112/228
f 6/157/229 15/156/230 70/155/231 35/158/232
f 6/25/233 35/26/234 69/17/235 30/11/236
f 6/107/237 30/108/238 45/109/239 11/110/240
f 74/132/241 83/133/242 42/126/243 32/125/244
f 41/113/245 15/112/246 49/111/247 75/114/248
f 7/39/249 9/33/250 46/30/251 16/40/252
f 7/39/253 16/40/254 71/45/255 40/46/256
f 7/151/257 40/153/258 84/154/259 41/152/260
f 7/151/261 41/152/262 75/141/263 9/149/264
f 66/117/265 82/116/266 43/121/267 18/122/268
f 32/125/269 42/126/270 76/115/271 50/118/272
f 59/129/273 18/122/274 43/121/275 79/130/276
f 82/116/277 76/115/278 36/119/279 28/120/280
f 8/41/281 19/35/282 63/31/283 39/34/284
f 8/146/285 39/147/286 81/136/287 44/139/288
f 8/87/289 44/88/290 80/82/291 38/81/292
f 8/41/293 38/47/294 62/43/295 19/35/296
f 78/68/297 77/67/298 12/71/299 37/72/300
f 28/37/301 36/38/302 48/29/303 64/32/304
f 52/51/305 12/52/306 40/46/307 71/45/308
f 79/79/309 80/82/310 58/89/311 24/90/312 26/91/313 59/92/314
f 37/72/315 12/71/316 52/75/317 53/76/318
f 77/67/319 84/70/320 40/74/321 12/71/322
f 51/62/323 70/66/324 84/70/325 77/67/326
