# This file uses centimeters as units for non-parametric coordinates.

mtllib m1.mtl
g default
v -0.495281 0.034158 0.183629
v 0.136535 0.101958 0.190592
v -0.099325 0.009479 0.357765
v -0.405449 0.537155 0.256762
v 0.109486 0.399210 0.240137
v -0.093785 0.537844 0.323926
v -0.321688 0.475271 0.402090
v -0.062556 0.506927 0.467595
v 0.070411 0.083084 0.376915
v -0.093831 0.010523 0.567032
v -0.059887 0.220237 0.520840
v 0.071687 0.154650 0.376278
v 0.127136 0.175899 0.210729
v -0.471900 0.253504 0.214729
v -0.341576 0.388283 0.442773
v -0.429436 0.359441 0.237443
v -0.071917 0.409208 0.513400
v 0.116661 0.261338 0.230876
v 0.063826 0.287147 0.378897
v -0.275155 0.025041 0.494730
v -0.363321 0.042457 0.386251
v -0.360849 0.255093 0.387696
v -0.288244 0.250716 0.488744
v -0.184485 0.538165 0.410256
v -0.213111 0.561020 0.322897
v -0.277807 0.312528 0.503013
v -0.331632 0.431777 0.422432
v -0.416584 0.449127 0.276250
v -0.063017 0.462338 0.490244
v -0.231146 0.425346 0.456635
v 0.065264 0.376060 0.372601
v 0.012099 -0.018356 -0.494668
v -0.111853 0.638085 -0.408624
v -0.421049 0.629500 -0.130394
v -0.332155 0.566470 -0.436404
v -0.598085 0.600637 -0.209528
v -0.622453 0.034496 -0.039506
v -0.700957 -0.034636 -0.364325
v -0.668925 0.232338 -0.273847
v -0.619625 0.127474 -0.031022
v -0.029044 0.268618 -0.473228
v -0.363743 0.457954 -0.496436
v -0.080874 0.406356 -0.435793
v -0.643602 0.478098 -0.263331
v -0.610589 0.300465 -0.029000
v -0.485308 -0.013219 -0.499545
v -0.302521 0.004078 -0.508574
v -0.296637 0.280700 -0.487295
v -0.459106 0.280472 -0.487842
v -0.442920 0.642192 -0.291827
v -0.327727 0.665498 -0.253512
v -0.479459 0.361644 -0.481921
v -0.347949 0.512212 -0.466420
v -0.127783 0.525875 -0.443390
v -0.623614 0.544689 -0.231383
v -0.461190 0.501918 -0.386874
v -0.601146 0.415494 -0.014429
v 0.071451 -0.054828 0.070664
v 0.091944 0.513381 0.138370
v 0.257275 -0.044020 0.059522
v 0.287071 -0.082257 -0.274229
v 0.352911 0.103362 0.077031
v 0.304244 0.213969 -0.355115
v 0.178579 0.473479 0.066283
v 0.261841 0.319155 -0.384110
v -0.046604 -0.084888 -0.116095
v 0.030623 0.628351 -0.148729
v 0.271863 -0.062435 -0.102845
v 0.338988 0.161262 -0.130453
v 0.210764 0.495106 -0.203622
v 0.042601 -0.062174 0.025025
v 0.349509 0.117512 0.026327
v 0.260840 -0.048520 0.019844
v 0.186445 0.478765 0.000325
v 0.041655 0.539387 0.058022
v -0.599641 0.506515 -0.110345
v -0.425312 0.492209 0.056604
v 0.279467 -0.072346 -0.188537
v -0.025126 0.517354 -0.292261
v 0.236303 0.407131 -0.293866
v 0.321616 0.187616 -0.242784
v -0.473401 -0.092630 -0.207745
v -0.358068 0.718894 0.192250
v -0.208391 0.737466 0.243716
v -0.153404 0.801732 -0.359845
v -0.370208 0.790757 -0.109035
v -0.325138 0.834591 -0.247260
v -0.018717 0.789863 -0.123304
v -0.010132 0.720632 0.037590
v -0.373526 0.683917 0.036486
v -0.181495 0.979784 -0.298227
v -0.320434 0.958549 -0.077886
v -0.305045 1.003424 -0.217230
v -0.067561 0.957906 -0.088151
v -0.061385 0.908098 0.027601
v -0.322822 0.881685 0.026807
v -0.011112 -0.058350 -0.476501
v -0.612505 -0.008259 -0.045124
v -0.686907 -0.073779 -0.352970
v -0.482526 -0.053482 -0.481123
v -0.309291 -0.037088 -0.489680
v -0.491978 -0.008580 0.166351
v -0.066747 -0.121405 -0.117710
vt 0.123275 0.169803
vt 0.110240 0.156685
vt 0.122182 0.152700
vt 0.137145 0.158923
vt 0.116216 0.132646
vt 0.091052 0.131081
vt 0.155094 0.176368
vt 0.149644 0.195496
vt 0.455914 0.721692
vt 0.478383 0.741378
vt 0.462837 0.751072
vt 0.424745 0.735605
vt 0.129253 0.208781
vt 0.194889 0.203544
vt 0.197166 0.240983
vt 0.137011 0.224399
vt 0.170515 0.196904
vt 0.183458 0.200133
vt 0.114682 0.214157
vt 0.083675 0.207837
vt 0.087816 0.168567
vt 0.077644 0.151940
vt 0.053319 0.149330
vt 0.054544 0.209777
vt 0.041109 0.177233
vt 0.358110 0.503330
vt 0.373595 0.472115
vt 0.412782 0.439161
vt 0.408573 0.478172
vt 0.444895 0.459715
vt 0.458334 0.483373
vt 0.476391 0.526424
vt 0.142419 0.155800
vt 0.141359 0.123169
vt 0.125565 0.122707
vt 0.131233 0.104559
vt 0.146926 0.115898
vt 0.387235 0.598632
vt 0.359313 0.597234
vt 0.325197 0.583172
vt 0.353395 0.569847
vt 0.196266 0.123578
vt 0.171114 0.142518
vt 0.173891 0.096794
vt 0.131189 0.137071
vt 0.120615 0.127403
vt 0.104509 0.088151
vt 0.099552 0.105142
vt 0.167769 0.173851
vt 0.197166 0.169159
vt 0.186888 0.171365
vt 0.119410 0.058318
vt 0.153201 0.081254
vt 0.148290 0.151387
vt 0.323053 0.554585
vt 0.331944 0.535867
vt 0.351255 0.505936
vt 0.098505 0.119643
vt 0.056571 0.088916
vt 0.037511 0.095174
vt 0.018356 0.100946
vt 0.018931 0.090865
vt 0.475815 0.692672
vt 0.459067 0.704249
vt 0.450227 0.679201
vt 0.474794 0.680431
vt 0.028706 0.130502
vt 0.005275 0.140885
vt 0.002208 0.122908
vt 0.454960 0.638551
vt 0.409554 0.631745
vt 0.413579 0.625436
vt 0.456788 0.631945
vt 0.520004 0.637923
vt 0.519880 0.680837
vt 0.482395 0.638465
vt 0.477603 0.716511
vt 0.457277 0.712911
vt 0.410504 0.675890
vt 0.415783 0.699096
vt 0.064217 0.072477
vt 0.085163 0.037433
vt 0.078448 0.049875
vt 0.037580 0.044065
vt 0.047225 0.001953
vt 0.019507 0.078692
vt 0.509602 0.728932
vt 0.506664 0.738472
vt 0.511019 0.717359
vt 0.423295 0.544482
vt 0.423315 0.538393
vt 0.064621 0.117869
vt 0.425267 0.717251
vt 0.404790 0.573075
vt 0.419529 0.595105
vt 0.414171 0.619699
vt 0.424573 0.593955
vt 0.422419 0.621373
vt 0.192488 0.247711
vt 0.133171 0.233410
vt 0.481644 0.531792
vt 0.465586 0.584075
vt 0.453116 0.586701
vt 0.358242 0.665362
vt 0.358242 0.619527
vt 0.364189 0.681790
vt 0.398788 0.723204
vt 0.382074 0.746256
vt 0.360775 0.719706
vt 0.362702 0.700770
vt 0.409322 0.566054
vt 0.441126 0.589872
vt 0.168430 0.282984
vt 0.131677 0.279529
vt 0.122329 0.262283
vt 0.178297 0.268211
vt 0.464359 0.626379
vt 0.446996 0.624979
vt 0.093002 0.240800
vt 0.481644 0.628469
vt 0.158694 0.297769
vt 0.140876 0.296761
vt 0.428116 0.762060
vt 0.388873 0.770756
vt 0.067915 0.232424
vt 0.026728 0.158287
vt 0.005166 0.164951
vt 0.456571 0.774860
vt 0.025293 0.183692
vt 0.005509 0.191416
vt 0.429631 0.790499
vt 0.394724 0.796756
vt 0.039252 0.220232
vt 0.450033 0.799552
vt 0.001953 0.214343
vt 0.483352 0.632024
vt 0.519386 0.631459
vt 0.367457 0.469086
vt 0.409095 0.433825
vn 0.174802 0.968010 0.180002
vn 0.174802 0.968010 0.180002
vn 0.174802 0.968010 0.180002
vn 0.174802 0.968010 0.180002
vn -0.321416 0.829241 0.457222
vn -0.321416 0.829241 0.457222
vn -0.321416 0.829241 0.457222
vn -0.321416 0.829241 0.457222
vn 0.676114 0.716415 0.172104
vn 0.676114 0.716415 0.172104
vn 0.676114 0.716415 0.172104
vn 0.676114 0.716415 0.172104
vn -0.154198 0.870390 -0.467594
vn -0.154198 0.870390 -0.467594
vn -0.154198 0.870390 -0.467594
vn -0.154198 0.870390 -0.467594
vn 0.529894 0.214497 0.820490
vn 0.529894 0.214497 0.820490
vn 0.529894 0.214497 0.820490
vn 0.529894 0.214497 0.820490
vn 0.995608 0.092801 -0.012400
vn 0.995608 0.092801 -0.012400
vn 0.995608 0.092801 -0.012400
vn 0.995608 0.092801 -0.012400
vn 0.995608 0.092801 -0.012400
vn 0.704095 0.274998 0.654695
vn 0.704095 0.274998 0.654695
vn 0.704095 0.274998 0.654695
vn 0.704095 0.274998 0.654695
vn -0.086700 0.979095 -0.183999
vn -0.086700 0.979095 -0.183999
vn -0.086700 0.979095 -0.183999
vn -0.086700 0.979095 -0.183999
vn -0.008200 0.050998 0.998665
vn -0.008200 0.050998 0.998665
vn -0.008200 0.050998 0.998665
vn -0.008200 0.050998 0.998665
vn -0.296406 -0.927520 0.227705
vn -0.296406 -0.927520 0.227705
vn -0.296406 -0.927520 0.227705
vn -0.296406 -0.927520 0.227705
vn -0.003000 -0.983405 -0.181401
vn -0.003000 -0.983405 -0.181401
vn -0.003000 -0.983405 -0.181401
vn -0.003000 -0.983405 -0.181401
vn -0.003000 -0.983405 -0.181401
vn 0.728072 0.112096 0.676274
vn 0.746020 0.295408 0.596816
vn 0.740234 0.199309 0.642129
vn -0.783542 -0.098805 0.613433
vn -0.861535 0.024201 0.507121
vn -0.835957 0.005100 0.548772
vn -0.789291 -0.057799 0.611293
vn 0.448185 -0.671078 0.590580
vn 0.395897 -0.918092 0.019300
vn 0.097697 -0.994669 0.032999
vn 0.131700 -0.984397 0.116700
vn -0.231889 0.126694 0.964456
vn -0.168202 0.055101 0.984211
vn -0.160297 0.046299 0.985982
vn -0.231889 0.126694 0.964456
vn -0.262706 0.453010 0.851920
vn -0.269611 0.455118 0.848633
vn -0.260211 0.457219 0.850436
vn -0.260211 0.457219 0.850436
vn -0.859449 0.037702 0.509829
vn -0.835957 0.005100 0.548772
vn -0.861535 0.024201 0.507121
vn -0.888289 0.083699 0.451594
vn 0.944716 0.035101 0.326006
vn 0.944891 0.019600 0.326797
vn 0.944891 0.019600 0.326797
vn 0.944784 0.031299 0.326195
vn 0.748982 0.016500 0.662384
vn 0.745474 0.031799 0.665776
vn 0.743893 0.038400 0.667194
vn 0.748982 0.016500 0.662384
vn -0.839687 0.009300 0.542991
vn -0.817016 -0.002000 0.576611
vn -0.835957 0.005100 0.548772
vn -0.859449 0.037702 0.509829
vn 0.745474 0.031799 0.665776
vn 0.734511 0.066701 0.675310
vn 0.729607 0.077101 0.679507
vn 0.743893 0.038400 0.667194
vn -0.268395 0.450491 0.851483
vn -0.274805 0.453908 0.847614
vn -0.269611 0.455118 0.848633
vn -0.262706 0.453010 0.851920
vn -0.793905 -0.012900 0.607904
vn -0.789291 -0.057799 0.611293
vn -0.835957 0.005100 0.548772
vn -0.817016 -0.002000 0.576611
vn 0.944808 0.008900 0.327503
vn 0.944819 0.025401 0.326607
vn 0.944807 0.025900 0.326602
vn 0.944808 0.008900 0.327503
vn -0.168202 0.055101 0.984211
vn -0.093097 -0.027699 0.995272
vn -0.093097 -0.027699 0.995272
vn -0.160297 0.046299 0.985982
vn -0.260113 0.445922 0.856443
vn -0.268395 0.450491 0.851483
vn -0.262706 0.453010 0.851920
vn -0.260194 0.452089 0.853179
vn 0.944819 0.025401 0.326607
vn 0.944716 0.035101 0.326006
vn 0.944784 0.031299 0.326195
vn 0.944807 0.025900 0.326602
vn -0.260194 0.452089 0.853179
vn -0.262706 0.453010 0.851920
vn -0.260211 0.457219 0.850436
vn -0.260211 0.457219 0.850436
vn 0.734511 0.066701 0.675310
vn 0.728072 0.112096 0.676274
vn 0.740234 0.199309 0.642129
vn 0.729607 0.077101 0.679507
vn 0.131700 -0.984397 0.116700
vn 0.097697 -0.994669 0.032999
vn -0.107498 -0.993384 0.040399
vn -0.107498 -0.993384 0.040399
vn -0.114299 -0.985192 0.127799
vn -0.851091 0.190098 0.489395
vn -0.888289 0.083699 0.451594
vn -0.861535 0.024201 0.507121
vn -0.861101 0.170200 0.479100
vn -0.792187 0.289595 0.537191
vn -0.851091 0.190098 0.489395
vn -0.861101 0.170200 0.479100
vn -0.792187 0.289595 0.537191
vn -0.970369 0.130596 0.203294
vn -0.910410 0.307103 0.277203
vn -0.910410 0.307103 0.277203
vn -0.946932 0.214707 0.239208
vn -0.041001 -0.026300 -0.998813
vn 0.094903 0.091903 -0.991235
vn 0.045499 0.074698 -0.996168
vn -0.034600 0.014600 -0.999295
vn -0.332904 0.876712 0.347205
vn -0.215709 0.970741 0.105504
vn -0.215709 0.970741 0.105504
vn -0.356688 0.844171 0.400186
vn 0.003300 -0.417610 -0.908621
vn 0.010300 -0.418484 -0.908166
vn 0.010300 -0.418484 -0.908166
vn 0.001600 -0.417326 -0.908756
vn -0.640890 0.201597 -0.740688
vn -0.696575 0.129095 -0.705775
vn -0.702929 0.120205 -0.701029
vn -0.640890 0.201597 -0.740688
vn -0.520691 0.520291 -0.676888
vn -0.513989 0.522389 -0.680386
vn -0.520874 0.524274 -0.673667
vn -0.520874 0.524274 -0.673667
vn 0.091897 0.105496 -0.990164
vn 0.045499 0.074698 -0.996168
vn 0.094903 0.091903 -0.991235
vn 0.157501 0.148401 -0.976305
vn -0.848292 0.082299 0.523095
vn -0.826591 -0.003400 0.562794
vn -0.844600 0.065300 0.531400
vn -0.974586 0.033500 0.221497
vn -0.974760 0.049098 0.217791
vn -0.974771 0.055898 0.216094
vn -0.974586 0.033500 0.221497
vn 0.052501 0.078701 -0.995515
vn 0.011699 0.068897 -0.997555
vn 0.045499 0.074698 -0.996168
vn 0.091897 0.105496 -0.990164
vn -0.974760 0.049098 0.217791
vn -0.974896 0.085000 0.205799
vn -0.975062 0.095796 0.200192
vn -0.974771 0.055898 0.216094
vn -0.517194 0.517894 -0.681392
vn -0.510195 0.521395 -0.683994
vn -0.513989 0.522389 -0.680386
vn -0.520691 0.520291 -0.676888
vn -0.027499 0.059298 -0.997862
vn -0.034600 0.014600 -0.999295
vn 0.045499 0.074698 -0.996168
vn 0.011699 0.068897 -0.997555
vn -0.863645 0.008600 0.504026
vn -0.857921 0.081902 0.507212
vn -0.861366 0.045098 0.505980
vn -0.863645 0.008600 0.504026
vn -0.696575 0.129095 -0.705775
vn -0.752259 0.044498 -0.657364
vn -0.752259 0.044498 -0.657364
vn -0.702929 0.120205 -0.701029
vn -0.526169 0.513470 -0.677860
vn -0.517194 0.517894 -0.681392
vn -0.520691 0.520291 -0.676888
vn -0.523313 0.519313 -0.675617
vn -0.857921 0.081902 0.507212
vn -0.848292 0.082299 0.523095
vn -0.844600 0.065300 0.531400
vn -0.861366 0.045098 0.505980
vn -0.523313 0.519313 -0.675617
vn -0.520691 0.520291 -0.676888
vn -0.520874 0.524274 -0.673667
vn -0.520874 0.524274 -0.673667
vn -0.974896 0.085000 0.205799
vn -0.970369 0.130596 0.203294
vn -0.946932 0.214707 0.239208
vn -0.975062 0.095796 0.200192
vn 0.778234 -0.448720 0.439319
vn -0.318497 -0.376396 0.869992
vn -0.206399 -0.380399 0.901497
vn 0.725825 -0.424315 0.541419
vn -0.452294 0.697991 0.555193
vn -0.509990 0.673887 0.534590
vn -0.509990 0.673887 0.534590
vn -0.484498 0.684997 0.544097
vn 0.108705 0.255613 -0.960648
vn 0.157501 0.148401 -0.976305
vn 0.094903 0.091903 -0.991235
vn 0.122195 0.235491 -0.964164
vn 0.038799 0.355993 -0.933683
vn 0.108705 0.255613 -0.960648
vn 0.122195 0.235491 -0.964164
vn 0.038799 0.355993 -0.933683
vn 0.448185 -0.671078 0.590580
vn 0.187295 -0.855475 0.482786
vn 0.268693 -0.510886 0.816578
vn 0.268693 -0.510886 0.816578
vn 0.899153 -0.435326 -0.044903
vn 0.900819 -0.431909 -0.044501
vn 0.862594 -0.503197 -0.052200
vn 0.862594 -0.503197 -0.052200
vn 0.905558 0.411481 0.103195
vn 0.907098 0.408199 0.102700
vn 0.901046 0.420921 0.104605
vn 0.901046 0.420921 0.104605
vn 0.006600 -0.999972 -0.003500
vn -0.053001 -0.990318 -0.128302
vn -0.053001 -0.990318 -0.128302
vn -0.005400 -0.999593 -0.028000
vn 0.474687 -0.069898 -0.877375
vn 0.354988 0.054698 -0.933269
vn 0.404919 0.004400 -0.914342
vn 0.474687 -0.069898 -0.877375
vn 0.498408 0.853814 0.150302
vn 0.429378 0.900554 0.068097
vn 0.429378 0.900554 0.068097
vn 0.512505 0.842109 0.167902
vn 0.354988 0.054698 -0.933269
vn 0.268304 0.137202 -0.953514
vn 0.268304 0.137202 -0.953514
vn 0.404919 0.004400 -0.914342
vn 0.295993 0.708184 -0.640986
vn 0.306785 0.704865 -0.639569
vn 0.306785 0.704865 -0.639569
vn 0.293103 0.709006 -0.641406
vn 0.064797 -0.990850 0.118394
vn 0.006600 -0.999972 -0.003500
vn 0.064901 -0.990722 0.119403
vn 0.064797 -0.990850 0.118394
vn 0.935210 0.347504 -0.068001
vn 0.935255 0.347383 -0.067997
vn 0.925862 0.376685 0.029799
vn 0.923865 0.380385 0.042198
vn 0.981775 -0.179195 -0.063298
vn 0.984923 -0.161504 -0.062001
vn 0.956149 -0.287515 -0.055803
vn 0.951198 -0.304099 -0.052400
vn 0.064797 -0.990850 0.118394
vn 0.064797 -0.990850 0.118394
vn 0.064797 -0.990850 0.118394
vn 0.064797 -0.990850 0.118394
vn 0.555293 0.801089 0.223397
vn 0.498408 0.853814 0.150302
vn 0.512505 0.842109 0.167902
vn 0.555293 0.801089 0.223397
vn 0.923865 0.380385 0.042198
vn 0.925862 0.376685 0.029799
vn 0.907098 0.408199 0.102700
vn 0.905558 0.411481 0.103195
vn 0.951198 -0.304099 -0.052400
vn 0.956149 -0.287515 -0.055803
vn 0.900819 -0.431909 -0.044501
vn 0.899153 -0.435326 -0.044903
vn 0.614797 0.575297 0.539497
vn 0.410514 0.856630 0.312511
vn 0.315091 0.924875 0.212894
vn 0.315091 0.924875 0.212894
vn 0.410514 0.856630 0.312511
vn 0.223305 0.967420 0.119302
vn 0.223305 0.967420 0.119302
vn -0.356688 0.844171 0.400186
vn -0.452294 0.697991 0.555193
vn -0.484498 0.684997 0.544097
vn -0.332904 0.876712 0.347205
vn -0.991406 0.115201 0.062000
vn -0.989875 0.126597 0.064198
vn -0.989803 0.127100 0.064300
vn -0.987944 0.139706 0.066703
vn -0.989803 0.127100 0.064300
vn -0.989875 0.126597 0.064198
vn 0.991031 -0.120004 -0.058802
vn 0.991031 -0.120004 -0.058802
vn 0.984923 -0.161504 -0.062001
vn 0.981775 -0.179195 -0.063298
vn 0.934067 0.350388 -0.068898
vn 0.934067 0.350388 -0.068898
vn 0.935255 0.347383 -0.067997
vn 0.935210 0.347504 -0.068001
vn 0.285703 0.711207 -0.642307
vn 0.295993 0.708184 -0.640986
vn 0.293103 0.709006 -0.641406
vn 0.285703 0.711207 -0.642307
vn 0.006600 -0.999972 -0.003500
vn -0.005400 -0.999593 -0.028000
vn 0.064901 -0.990722 0.119403
vn 0.801187 0.280895 -0.528391
vn 0.830791 0.204398 -0.517695
vn 0.844332 0.162706 -0.510519
vn 0.847995 0.220199 -0.482097
vn 0.929175 0.287692 -0.232094
vn 0.844332 0.162706 -0.510519
vn 0.830791 0.204398 -0.517695
vn 0.929175 0.287692 -0.232094
vn 0.847995 0.220199 -0.482097
vn 0.834270 0.323489 -0.446484
vn 0.929455 0.309185 -0.201290
vn -0.963786 0.264196 0.036299
vn -0.780173 0.379787 0.497083
vn -0.748804 0.386402 0.538503
vn -0.963786 0.264196 0.036299
vn -0.780173 0.379787 0.497083
vn -0.342293 0.392292 0.853782
vn -0.342293 0.392292 0.853782
vn -0.748804 0.386402 0.538503
vn 0.957067 0.281290 0.069998
vn 0.929175 0.287692 -0.232094
vn 0.929455 0.309185 -0.201290
vn 0.958738 0.276111 0.067703
vn -0.967235 0.248709 -0.051002
vn -0.944767 0.274090 0.179694
vn -0.947376 0.267993 0.175096
vn -0.968986 0.236996 -0.069999
vn -0.757627 0.131405 -0.639323
vn -0.967235 0.248709 -0.051002
vn -0.968986 0.236996 -0.069999
vn -0.784397 0.189199 -0.590698
vn -0.559305 0.071101 -0.825907
vn -0.757627 0.131405 -0.639323
vn -0.784397 0.189199 -0.590698
vn -0.542821 0.119305 -0.831332
vn -0.784397 0.189199 -0.590698
vn -0.968986 0.236996 -0.069999
vn -0.970916 0.238704 -0.018500
vn -0.810526 0.239008 -0.534717
vn 0.929455 0.309185 -0.201290
vn 0.834270 0.323489 -0.446484
vn 0.840212 0.311005 -0.444207
vn 0.928071 0.300991 -0.219293
vn -0.968986 0.236996 -0.069999
vn -0.947376 0.267993 0.175096
vn -0.953669 0.252492 0.163595
vn -0.970916 0.238704 -0.018500
vn 0.958738 0.276111 0.067703
vn 0.929455 0.309185 -0.201290
vn 0.928071 0.300991 -0.219293
vn 0.961809 0.266302 0.063301
vn -0.542821 0.119305 -0.831332
vn -0.784397 0.189199 -0.590698
vn -0.810526 0.239008 -0.534717
vn -0.507880 0.209092 -0.835667
vn 0.101902 0.982021 0.158903
vn 0.101902 0.982021 0.158903
vn 0.030099 0.937867 0.345688
vn 0.022400 0.930895 0.364598
vn -0.034199 0.866279 0.498388
vn 0.022400 0.930895 0.364598
vn 0.030099 0.937867 0.345688
vn -0.034199 0.866279 0.498388
vn 0.131700 -0.984397 0.116700
vn 0.187295 -0.855475 0.482786
vn 0.448185 -0.671078 0.590580
vn 0.131700 -0.984397 0.116700
vn -0.114299 -0.985192 0.127799
vn -0.116000 -0.975602 0.186400
vn 0.187295 -0.855475 0.482786
vn -0.849907 -0.403404 -0.339003
vn -0.216106 -0.418512 -0.882126
vn -0.259190 -0.416584 -0.871366
vn -0.865214 -0.398806 -0.303905
vn -0.318497 -0.376396 0.869992
vn -0.884456 -0.256987 0.389481
vn -0.891972 -0.256492 0.372288
vn -0.206399 -0.380399 0.901497
vn -0.116000 -0.975602 0.186400
vn -0.114299 -0.985192 0.127799
vn -0.107496 -0.968667 0.223892
vn -0.030301 -0.983635 -0.177606
vn -0.061397 -0.997259 -0.041298
vn -0.087597 -0.993066 0.078397
vn -0.087597 -0.993066 0.078397
vn -0.061397 -0.997259 -0.041298
vn -0.115703 -0.970329 0.212306
vn 0.873569 -0.484083 0.050398
vn 0.778234 -0.448720 0.439319
vn 0.725825 -0.424315 0.541419
vn 0.873569 -0.484083 0.050398
vn -0.884456 -0.256987 0.389481
vn -0.849907 -0.403404 -0.339003
vn -0.865214 -0.398806 -0.303905
vn -0.891972 -0.256492 0.372288
vn -0.216106 -0.418512 -0.882126
vn 0.003300 -0.417610 -0.908621
vn 0.001600 -0.417326 -0.908756
vn -0.259190 -0.416584 -0.871366
s off
g Bush:Rock_2:Mesh
usemtl Bush:lambert2SG
f 6/1/1 25/2/2 24/3/3 8/4/4
f 7/5/5 24/3/6 25/2/7 4/6/8
f 8/4/9 31/7/10 5/8/11 6/1/12
f 35/9/13 50/10/14 51/11/15 33/12/16
f 59/13/17 2/14/18 62/15/19 64/16/20
f 18/17/21 13/18/22 2/14/23 59/13/24 5/8/25
f 25/2/26 75/19/27 89/20/28 84/21/29
f 83/22/30 84/21/31 89/20/32 90/23/33
f 90/23/34 89/20/35 95/24/36 96/25/37
f 102/26/38 98/27/39 99/28/40 82/29/41
f 82/29/42 99/28/43 100/30/44 101/31/45 97/32/46
f 31/7/47 8/4/48 29/33/49
f 26/34/50 15/35/51 22/36/52 23/37/53
f 2/38/54 9/39/55 10/40/56 3/41/57
f 10/42/58 11/43/59 23/37/60 20/44/61
f 30/45/62 24/3/63 7/5/64 27/46/65
f 14/47/66 22/36/67 15/35/68 16/48/69
f 18/17/70 5/8/71 31/7/72 19/49/73
f 9/50/74 12/51/75 11/43/76 10/42/77
f 1/52/78 21/53/79 22/36/80 14/47/81
f 12/51/82 19/49/83 17/54/84 11/43/85
f 29/33/86 8/4/87 24/3/88 30/45/89
f 20/44/90 23/37/91 22/36/92 21/53/93
f 2/14/94 13/18/95 12/51/96 9/50/97
f 11/43/98 17/54/99 26/34/100 23/37/101
f 17/54/102 29/33/103 30/45/104 26/34/105
f 13/18/106 18/17/107 19/49/108 12/51/109
f 26/34/110 30/45/111 27/46/112 15/35/113
f 19/49/114 31/7/115 29/33/116 17/54/117
f 3/41/118 10/40/119 20/55/120 21/56/121 1/57/122
f 28/58/123 16/48/124 15/35/125 27/46/126
f 4/6/127 28/58/128 27/46/129 7/5/130
f 57/59/131 76/60/132 36/61/133 55/62/134
f 52/63/135 42/64/136 48/65/137 49/66/138
f 34/67/139 51/68/140 50/69/141 36/61/142
f 47/70/143 32/71/144 97/72/145 101/73/146
f 38/74/147 39/75/148 49/66/149 46/76/150
f 56/77/151 50/10/152 35/9/153 53/78/154
f 41/79/155 48/65/156 42/64/157 43/80/158
f 16/48/159 57/59/160 45/81/161
f 37/82/162 40/83/163 39/84/164 38/85/165
f 32/71/166 47/70/167 48/65/168 41/79/169
f 40/83/170 45/81/171 44/86/172 39/84/173
f 55/87/174 36/88/175 50/10/176 56/77/177
f 46/76/178 49/66/179 48/65/180 47/70/181
f 1/52/182 14/47/183 40/83/184 37/82/185
f 39/75/186 44/89/187 52/63/188 49/66/189
f 44/89/190 55/87/191 56/77/192 52/63/193
f 14/47/194 16/48/195 45/81/196 40/83/197
f 52/63/198 56/77/199 53/78/200 42/64/201
f 45/81/202 57/59/203 55/62/204 44/86/205
f 66/90/206 1/57/207 102/26/208 103/91/209
f 76/60/210 57/59/211 16/48/212 77/92/213
f 54/93/214 43/80/215 42/64/216 53/78/217
f 33/12/218 54/93/219 53/78/220 35/9/221
f 2/38/222 58/94/223 60/95/224 62/96/225
f 73/97/226 72/98/227 62/96/228 60/95/229
f 72/99/230 74/100/231 64/16/232 62/15/233
f 66/90/234 32/101/235 61/102/236 78/103/237
f 32/71/238 41/79/239 63/104/240 61/105/241
f 75/19/242 59/13/243 64/16/244 74/100/245
f 41/79/246 43/80/247 65/106/248 63/104/249
f 79/107/250 67/108/251 70/109/252 80/110/253
f 71/111/254 66/90/255 68/112/256 73/97/257
f 81/113/258 80/114/259 70/115/260 69/116/261
f 78/103/262 81/117/263 69/118/264 68/112/265
f 58/94/266 71/111/267 73/97/268 60/95/269
f 67/119/270 75/19/271 74/100/272 70/115/273
f 69/116/274 70/115/275 74/100/276 72/99/277
f 68/112/278 69/118/279 72/98/280 73/97/281
f 5/8/282 59/13/283 6/1/284
f 6/1/285 59/13/286 75/19/287 25/2/288
f 36/61/289 76/60/290 77/92/291 34/67/292
f 16/48/293 28/58/294 77/92/295
f 4/6/296 77/92/297 28/58/298
f 61/102/299 63/120/300 81/117/301 78/103/302
f 63/121/303 65/122/304 80/114/305 81/113/306
f 43/80/307 79/107/308 80/110/309 65/106/310
f 66/90/311 78/103/312 68/112/313
f 43/80/314 54/93/315 79/107/316
f 33/12/317 67/108/318 79/107/319 54/93/320
f 67/108/321 33/12/322 85/123/323 88/124/324
f 77/92/325 4/6/326 83/22/327 90/23/328
f 4/6/329 25/2/330 84/21/331 83/22/332
f 75/19/333 67/119/334 88/125/335 89/20/336
f 34/67/337 77/92/338 90/23/339 86/126/340
f 51/68/341 34/67/342 86/126/343 87/127/344
f 33/12/345 51/11/346 87/128/347 85/123/348
f 87/127/349 86/126/350 92/129/351 93/130/352
f 88/124/353 85/123/354 91/131/355 94/132/356
f 86/126/357 90/23/358 96/25/359 92/129/360
f 89/20/361 88/125/362 94/133/363 95/24/364
f 85/123/365 87/128/366 93/134/367 91/131/368
f 91/135/369 93/130/370 92/129/371 94/133/372
f 95/24/373 94/133/374 92/129/375 96/25/376
f 3/41/377 58/94/378 2/38/379
f 3/41/380 1/57/381 71/111/382 58/94/383
f 38/74/384 46/76/385 100/136/386 99/137/387
f 1/57/388 37/138/389 98/27/390 102/26/391
f 71/111/392 1/57/393 66/90/394
f 97/32/395 103/91/396 82/29/397
f 82/29/398 103/91/399 102/26/400
f 32/101/401 66/90/402 103/91/403 97/32/404
f 37/138/405 38/139/406 99/28/407 98/27/408
f 46/76/409 47/70/410 101/73/411 100/136/412
